<svg xmlns="http://www.w3.org/2000/svg" viewBox="0 0 489 489"><defs><style>.cls-1{fill:#0071bc;}.cls-2{fill:#fff;}</style></defs><title>logo</title><g id="Layer_2" data-name="Layer 2"><g id="Layer_1-2" data-name="Layer 1"><circle class="cls-1" cx="244.5" cy="244.5" r="244.5"/><path class="cls-2" d="M182.71,39.14,306.58,85q41.9,15.51,61.5,30.06a119.82,119.82,0,0,1,39.16,49.64q12.84,30,11.92,66.25t-18.39,83.4Q385.44,355.8,364,382q-26.14,32-57.9,46-24,10.64-57.54,9.15Q223.52,435.91,186,422L58.44,374.78ZM229.46,121,147.15,343.32l50.6,18.74q28.38,10.5,42.17,12,18,2,32.53-3.84t29.74-25.83q15.21-20,29.63-58.93t15.25-62.3q.85-23.37-7.19-39.63t-25.52-27.41q-13-8.46-54.45-23.8Z"/></g></g></svg>